<svg width="80" height="80" viewBox="0 0 80 80" fill="none" xmlns="http://www.w3.org/2000/svg">
<path d="M39.5767 39.9999C44.6234 39.9999 48.7395 35.8839 48.7395 30.8374C48.7395 25.7907 44.6236 21.6746 39.5767 21.6746C34.5303 21.6746 30.4141 25.7905 30.4141 30.8374C30.4139 35.8838 34.53 39.9999 39.5767 39.9999Z" fill="#85BF4F"/>
<path d="M47.2045 25.7599C48.0975 27.0967 48.6467 28.6821 48.7289 30.3901C48.7364 30.5387 48.74 30.6879 48.7396 30.8374C48.7396 35.8978 44.6375 39.9999 39.5771 39.9999C34.5167 39.9999 30.4145 35.8978 30.4145 30.8374C30.4145 25.7765 34.5167 21.6746 39.5771 21.6746C39.7231 21.6746 39.8681 21.6782 40.0126 21.6849C40.6931 21.7168 41.3542 21.8226 41.9873 21.9974C44.1492 22.5829 45.9936 23.9423 47.2045 25.7599ZM78.317 15.0103H1.68262V46.6642H78.317V15.0103Z" fill="#A7E2DE"/>
<path d="M1.68262 15.0103H78.317V13.3757C78.317 10.6095 76.0543 8.34668 73.2881 8.34668H6.71168C3.94543 8.34668 1.68262 10.6095 1.68262 13.3757V15.0103Z" fill="#85B6FF"/>
<path d="M78.317 46.6638H1.68262V49.964C1.68262 52.7302 3.94543 54.9933 6.71168 54.9933H31.6701H48.3297H73.2881C76.0542 54.9933 78.317 52.7301 78.317 49.964V46.6638Z" fill="#A8A7EE"/>
<path d="M48.3298 54.9937H31.6701L28.3379 64.9894H51.6615L48.3298 54.9937Z" fill="#85B6FF"/>
<path d="M51.6613 64.9893H28.3377C26.5049 64.9893 25.0059 66.4883 25.0059 68.3211V70.7133C25.0059 71.2307 25.429 71.6536 25.9457 71.6536H54.0532C54.5704 71.6536 54.9934 71.2305 54.9934 70.7133V68.3211C54.9937 66.4883 53.4945 64.9893 51.6613 64.9893Z" fill="#85B6FF"/>
<path d="M73.2883 6.66357H6.71188C3.01109 6.66357 0 9.67467 0 13.3756V49.9642C0 53.6654 3.01109 56.6765 6.71188 56.6765H29.3355L27.0712 63.4687C24.9178 64.0315 23.3236 65.9936 23.3236 68.3209V70.7131C23.3236 72.1597 24.5 73.3362 25.9462 73.3362H54.0538C55.5 73.3362 56.6767 72.1597 56.6767 70.7131V68.3209C56.6767 65.9936 55.0823 64.0314 52.9287 63.4687L50.6647 56.6764H73.2883C76.9892 56.6764 80 53.6653 80 49.964V13.3756C80 9.67467 76.9891 6.66357 73.2883 6.66357ZM3.36563 16.6929H76.6344V44.9812H3.36563V16.6929ZM6.71188 10.0292H73.2881C75.1169 10.0292 76.6056 11.5047 76.6317 13.3272H3.36797C3.39422 11.5048 4.88328 10.0292 6.71188 10.0292ZM53.3111 69.9706H26.6892V68.3209C26.6892 67.4115 27.4288 66.6719 28.3383 66.6719H51.6619C52.5712 66.6719 53.3114 67.4114 53.3114 68.3209V69.9706H53.3111ZM49.327 63.3064H30.673L32.883 56.6764H47.1169L49.327 63.3064ZM73.2883 53.3106H48.3298H31.6702H6.71188C4.86672 53.3106 3.36563 51.8094 3.36563 49.9642V48.3469H76.6344V49.9642C76.6344 51.8094 75.1334 53.3106 73.2883 53.3106Z" fill="#6F6FA6"/>
<path d="M50.7753 22.1887C50.1183 21.5317 49.0528 21.5317 48.3955 22.1887L46.0172 24.567C46.0119 24.5721 46.0064 24.5778 46.0009 24.5831L39.5766 31.0081L37.5397 28.9712C36.8823 28.3142 35.817 28.3142 35.1597 28.9712C34.5027 29.6282 34.5025 30.6937 35.1597 31.3512L38.3864 34.5779C38.702 34.8934 39.1302 35.0711 39.5766 35.0711C40.0228 35.0711 40.4508 34.8936 40.7663 34.5779L46.7216 28.6226C46.9422 29.3348 47.0564 30.0796 47.0564 30.8371C47.0564 34.9614 43.7011 38.3168 39.5764 38.3168C35.4517 38.3168 32.0963 34.9615 32.0963 30.8371C32.0963 26.7126 35.4519 23.3568 39.5764 23.3568C40.2409 23.3568 40.9028 23.4456 41.543 23.6204C42.4394 23.8653 43.365 23.337 43.6098 22.4407C43.8547 21.5442 43.3264 20.6186 42.4298 20.3737C41.5008 20.12 40.5405 19.9912 39.5762 19.9912C33.5958 19.9912 28.7305 24.8565 28.7305 30.8371C28.7305 36.8175 33.5958 41.6825 39.5762 41.6825C45.5566 41.6825 50.4219 36.8175 50.4219 30.8371C50.4219 29.1612 50.037 27.5273 49.3027 26.0411L50.7752 24.5686C51.4328 23.9112 51.4328 22.8456 50.7753 22.1887Z" fill="#000003"/>
<path d="M8.34688 30.4314C7.4175 30.4314 6.66406 31.1851 6.66406 32.1142V39.9997C6.66406 40.9291 7.4175 41.6825 8.34688 41.6825C9.27609 41.6825 10.0297 40.9291 10.0297 39.9997V32.1142C10.0298 31.1851 9.27625 30.4314 8.34688 30.4314Z" fill="#000003"/>
<path d="M8.34688 25.4856C7.4175 25.4856 6.66406 26.239 6.66406 27.1684V27.2908C6.66406 28.2198 7.4175 28.9736 8.34688 28.9736C9.27609 28.9736 10.0297 28.2198 10.0297 27.2908V27.1684C10.0298 26.2389 9.27625 25.4856 8.34688 25.4856Z" fill="#000003"/>
</svg>
