<svg width="70" height="70" viewBox="0 0 70 70" fill="none" xmlns="http://www.w3.org/2000/svg">
<path d="M51.3213 16.3215C51.3213 7.3217 43.9996 0 35.0001 0L33.5703 2.13979L35.0001 4.28586C41.6364 4.28586 47.0355 9.68502 47.0355 16.3213V29.646H35.0001V33.9318H51.3215V16.3215H51.3213Z" fill="#9B9B9B"/>
<path d="M22.9647 29.6461V16.3215C22.9647 9.68502 28.3639 4.286 35.0001 4.286V0C26.0004 0 18.6787 7.3217 18.6787 16.3215V33.932H35.0001V29.6461H22.9647Z" fill="#C1C1C1"/>
<path d="M35 27.4995V69.9999H42.1163C49.9223 69.9999 56.2501 63.672 56.2501 55.8661V27.4995H35Z" fill="#85B6FF"/>
<path d="M13.75 27.4995V55.8661C13.75 63.672 20.0779 69.9999 27.8838 69.9999H35.0002V27.4995H13.75Z" fill="#6F6FA6"/>
<path d="M38.003 55.9296V48.8172C39.5627 47.8235 40.5982 46.0801 40.5982 44.0937C40.5982 41.0018 38.0917 38.4956 35.0001 38.4956L33.5703 42.856L35.0001 55.9296H38.003Z" fill="#9B9B9B"/>
<path d="M29.4023 44.0937C29.4023 46.0801 30.4379 47.8235 31.9975 48.8172V55.9296H35.0004V38.4956C31.9087 38.4956 29.4023 41.0018 29.4023 44.0937Z" fill="#C1C1C1"/>
</svg>
