<svg width="54" height="60" viewBox="0 0 54 60" fill="none" xmlns="http://www.w3.org/2000/svg">
<path d="M34.751 41.4199V46.1555C34.751 49.3188 35.7255 51.8245 37.0363 53.7403C39.4068 57.2046 42.8795 58.738 43.6827 58.738C44.9304 58.738 52.6148 55.04 52.6148 46.1556V41.42C49.62 40.5991 46.4868 39.2872 43.6827 37.6316C43.163 37.9384 42.639 38.2312 42.1101 38.5106C39.7743 39.7439 37.3401 40.7105 34.751 41.4199Z" fill="#85BF4F"/>
<path d="M34.7511 46.1554V41.4198C37.3402 40.7104 39.7744 39.7438 42.1103 38.5104C39.076 38.3943 36.7934 37.5068 35.4428 33.906C34.9384 34.2263 34.3749 34.5824 33.7397 35.0133C29.2691 37.5946 24.7233 37.5897 20.2618 35.0138C19.6268 34.5831 19.0629 34.2269 18.5588 33.906C16.5116 41.5456 1.38672 36.4872 1.38672 53.7399H27.0006L37.0364 53.7401C35.7256 51.8244 34.7511 49.3187 34.7511 46.1554Z" fill="#FDFEFF"/>
<path d="M20.2622 35.0139C24.7238 37.5898 29.2697 37.5947 33.7402 35.0134C34.3754 34.5825 34.9389 34.2264 35.443 33.9059C38.3357 32.065 39.2584 31.3961 40.3833 24.5639C40.5966 23.267 41.1274 20.8914 41.4398 18.4327C37.0437 18.3083 34.9032 12.7002 34.9032 12.7002C28.3629 18.7526 17.2973 15.1883 17.2973 15.1883C16.1259 17.1405 12.5625 18.4327 12.5625 18.4327C12.8749 20.8916 13.4057 23.2672 13.6189 24.5639C14.7438 31.3957 15.6668 32.0647 18.5592 33.9061C19.0632 34.2268 19.627 34.5833 20.2622 35.0139Z" fill="#FDFEFF"/>
<path d="M17.2963 15.1884C17.2963 15.1884 28.3618 18.7527 34.9022 12.7003C34.9022 12.7003 37.0426 18.3085 41.4385 18.4328C41.7235 16.1894 41.8264 13.8766 41.3407 12.2505C39.2564 5.27201 33.5456 1.26268 27.0001 1.26221C20.4545 1.26221 14.7441 5.27236 12.6593 12.2505C12.1734 13.8766 12.2764 16.1894 12.5614 18.4328C12.5614 18.4328 16.1248 17.1408 17.2963 15.1884Z" fill="#85B6FF"/>
<path d="M18.0319 11.9429C18.2381 12.0696 18.4662 12.1301 18.6919 12.1301C19.1159 12.1301 19.53 11.9166 19.7682 11.5288C19.8892 11.3323 20.0177 11.1393 20.1503 10.9555C21.3499 9.29402 23.017 8.18273 24.9714 7.74176C25.6514 7.58824 26.0781 6.91266 25.9248 6.23273C25.7712 5.55281 25.0954 5.12578 24.4158 5.2793C21.852 5.85785 19.6692 7.30969 18.1036 9.47801C17.9345 9.71215 17.771 9.9573 17.6179 10.2067C17.2527 10.8005 17.4381 11.5778 18.0319 11.9429Z" fill="#000003"/>
<path d="M28.2289 7.60031C28.2341 7.60101 28.2466 7.60265 28.2496 7.60312C28.3043 7.61015 28.3583 7.61355 28.4121 7.61355C29.0348 7.61355 29.5717 7.15124 29.6559 6.51691C29.7476 5.82796 29.2589 5.19374 28.5699 5.09929C28.549 5.09648 28.5283 5.0939 28.5076 5.09156C27.8142 5.01831 27.1932 5.5214 27.1203 6.21456C27.0478 6.90304 27.543 7.52027 28.2289 7.60031Z" fill="#000003"/>
<path d="M52.9482 40.2023C50.0257 39.4015 46.9629 38.1026 44.3242 36.5446C43.9285 36.3109 43.4369 36.3108 43.041 36.5446C42.6363 36.7835 42.23 37.0119 41.8219 37.2326C39.648 37.1037 38.104 36.5223 37.0231 34.3787C39.6372 32.6009 40.5755 31.161 41.6277 24.7691C41.6934 24.3705 41.7921 23.855 41.9068 23.2583C42.5357 19.9791 43.4864 15.0233 42.5501 11.8895C41.4658 8.25926 39.4083 5.22996 36.5997 3.12914C33.8632 1.08223 30.5438 0.000234375 27.0003 0C23.4568 0 20.1375 1.08188 17.401 3.12879C14.5923 5.22973 12.5346 8.25891 11.4501 11.8893C10.5141 15.0221 11.4646 19.9775 12.0936 23.2566C12.2082 23.8541 12.307 24.37 12.3727 24.769C13.4309 31.1957 14.3739 32.6166 17.0205 34.4081C16.178 36.0415 14.2953 36.842 11.4972 37.9177C8.99488 38.8796 6.15895 39.97 3.93285 42.2749C1.36984 44.9289 0.124023 48.6791 0.124023 53.74C0.124023 54.437 0.689101 55.0021 1.38613 55.0021H27H36.3902C36.8782 55.6488 37.3829 56.2072 37.8652 56.6798C39.9582 58.7306 42.5145 60 43.6823 60C44.8504 60 47.4065 58.7305 49.4995 56.6798C51.4962 54.7234 53.8764 51.3096 53.8764 46.1555V41.4197C53.8768 40.851 53.4966 40.3526 52.9482 40.2023ZM13.8688 12.6117C15.7278 6.38953 20.7595 2.52422 27.0002 2.52422C33.2417 2.52469 38.2734 6.39 40.1316 12.6118C40.4693 13.7421 40.4755 15.3139 40.3304 16.9617C37.575 16.0293 36.0972 12.2906 36.0815 12.2502C35.9321 11.8586 35.598 11.5666 35.1898 11.4713C34.7818 11.3761 34.3527 11.4893 34.0451 11.7739C28.1337 17.2441 17.7861 14.0198 17.6834 13.987C17.1248 13.807 16.5162 14.0359 16.2142 14.539C15.7686 15.2817 14.6792 16.0212 13.6383 16.5683C13.5282 15.0654 13.558 13.6515 13.8688 12.6117ZM14.8635 24.3589C14.7925 23.9273 14.6907 23.3961 14.5728 22.781C14.3796 21.7746 14.1408 20.5288 13.9459 19.2264C15.0045 18.7492 16.6779 17.8637 17.7814 16.6365C20.4436 17.3237 28.5414 18.9079 34.4639 14.681C35.392 16.3279 37.2074 18.7968 40.013 19.5015C39.8262 20.7041 39.6074 21.8469 39.4279 22.7825C39.31 23.3968 39.2083 23.9275 39.1373 24.3588C38.089 30.7263 37.4282 31.1467 34.6464 32.9159C34.1812 33.2118 33.6554 33.5462 33.0698 33.9423C31.0538 35.0989 29.0118 35.6851 27 35.6851C24.9883 35.685 22.9465 35.0988 20.931 33.9428C20.3458 33.5467 19.82 33.2122 19.355 32.9166C19.3151 32.8914 19.2761 32.8663 19.2372 32.8416C19.2345 32.8399 19.2318 32.8382 19.2291 32.8365C16.5527 31.1331 15.8959 30.6296 14.8635 24.3589ZM27.0003 52.4779H2.67789C3.09367 43.8534 7.82277 42.0346 12.4029 40.2737C15.0503 39.2559 17.7725 38.2085 19.1459 35.7859C19.2787 35.8738 19.4141 35.9643 19.5529 36.0582L19.6302 36.1068C22.0468 37.502 24.5262 38.2095 26.9998 38.2096C26.9998 38.2096 27 38.2096 27.0002 38.2096C29.4735 38.2096 31.9532 37.5019 34.3704 36.1063L34.4477 36.0578C34.6016 35.9534 34.7512 35.8536 34.8979 35.7568C35.7864 37.4004 36.9186 38.3762 38.1463 38.9537C36.9352 39.4366 35.6965 39.8516 34.4172 40.2021C33.8688 40.3523 33.4887 40.8507 33.4887 41.4195V46.1552C33.4887 46.6105 33.5082 47.0515 33.5434 47.4797H25.6895C24.9925 47.4797 24.4274 48.0448 24.4274 48.7418C24.4274 49.4388 24.9925 50.0039 25.6895 50.0039H33.9686C34.2023 50.9032 34.5092 51.7266 34.8633 52.4776H27.0003V52.4779ZM51.3525 46.1554C51.3525 54.1436 44.6513 57.278 43.6825 57.4703C43.0735 57.3493 40.1999 56.0653 38.1491 53.1445C38.1064 53.0648 38.0552 52.9907 37.9969 52.9223C37.1975 51.7266 36.5412 50.2691 36.2222 48.5204C36.2196 48.5062 36.2177 48.4921 36.2146 48.478C36.0851 47.7539 36.0126 46.9809 36.0126 46.1551V42.3696C38.3368 41.6702 40.5419 40.7657 42.6932 39.6293C42.6953 39.6281 42.6974 39.6271 42.6996 39.626C43.0285 39.4521 43.3564 39.2733 43.683 39.0885C46.0971 40.4488 48.7193 41.5702 51.3523 42.3686V46.1551H51.3525V46.1554Z" fill="#6F6FA6"/>
<path d="M40.8626 47.3088C40.3697 46.8159 39.5706 46.8159 39.0776 47.3088C38.5848 47.8017 38.5848 48.6008 39.0776 49.0938L41.5413 51.5576C41.7878 51.804 42.1108 51.9273 42.4338 51.9273C42.7568 51.9273 43.0799 51.804 43.3261 51.5576L48.2874 46.5967C48.7801 46.1038 48.7802 45.3047 48.2874 44.8118C47.7946 44.3189 46.9954 44.3189 46.5024 44.8118L42.4338 48.8802L40.8626 47.3088Z" fill="#000003"/>
<path d="M22.0714 47.4797H21.9799C21.2829 47.4797 20.7178 48.0448 20.7178 48.7418C20.7178 49.4389 21.2829 50.004 21.9799 50.004H22.0714C22.7684 50.004 23.3335 49.4389 23.3335 48.7418C23.3335 48.0448 22.7684 47.4797 22.0714 47.4797Z" fill="#000003"/>
<path d="M21.9391 24.8819C22.7993 24.8819 23.5012 24.1803 23.5012 23.3198C23.5012 22.4593 22.7993 21.7578 21.9391 21.7578C21.0786 21.7578 20.377 22.4594 20.377 23.3198C20.377 24.1803 21.0784 24.8819 21.9391 24.8819Z" fill="#000003"/>
<path d="M32.0621 24.8819C32.9225 24.8819 33.6242 24.1803 33.6242 23.3198C33.6242 22.4593 32.9226 21.7578 32.0621 21.7578C31.2018 21.7578 30.5 22.4594 30.5 23.3198C30.5 24.1803 31.2017 24.8819 32.0621 24.8819Z" fill="#000003"/>
</svg>
