<svg width="70" height="70" viewBox="0 0 70 70" fill="none" xmlns="http://www.w3.org/2000/svg">
<path d="M34.999 49.3966C34.999 62.9051 46.6823 68.5275 48.5789 68.5275C50.4761 68.5275 62.1593 62.9051 62.1593 49.3966V42.1965C57.6062 40.949 52.8427 38.9539 48.5789 36.4368C44.3011 38.9624 39.8271 40.8737 34.999 42.1965V49.3966Z" fill="#85BF4F"/>
<path d="M34.9995 42.1963C39.8274 40.8735 44.3016 38.9622 48.5794 36.4366C52.1157 38.5241 55.9954 40.2526 59.8142 41.4935L59.9817 41.1379C61.7206 37.5152 62.6967 33.4564 62.6967 29.169C62.6965 13.8728 50.296 1.47241 34.9995 1.47241C19.703 1.47241 7.30273 13.8728 7.30273 29.169C7.30273 44.2542 19.3628 56.5228 34.3677 56.8587L34.9998 56.8659C35.3537 56.8659 35.9649 56.8166 36.3157 56.8036C35.5023 54.6601 34.9998 52.1979 34.9998 49.3964V42.1961L34.9995 42.1963Z" fill="#85B6FF"/>
<path d="M62.5496 40.7762C62.3178 40.7127 62.0849 40.6458 61.852 40.5781C63.3905 36.9724 64.1696 33.1424 64.1696 29.1689C64.1698 13.0851 51.0844 0 35.0003 0C18.9161 0 5.83105 13.0851 5.83105 29.1691C5.83105 45.2531 18.9163 58.3384 35.0004 58.3384C35.1148 58.3384 35.2338 58.3371 35.3555 58.3353C36.6486 61.2691 38.4323 63.4959 40.0486 65.0795C43.4745 68.4362 47.165 70 48.5805 70C49.9961 70 53.6866 68.4361 57.1125 65.0796C60.0871 62.1651 63.633 57.0782 63.633 49.3969V42.1965C63.633 41.533 63.1895 40.9515 62.5496 40.7762ZM52.7126 36.9986C55.9844 36.2214 58.7804 35.2013 60.7917 33.9447C60.4306 35.9116 59.8434 37.825 59.0331 39.6717C56.8937 38.9167 54.7572 38.0127 52.7126 36.9986ZM23.1711 29.1691C23.1711 27.1307 23.2786 25.129 23.4875 23.1921C26.6066 22.7607 30.0022 22.5084 33.5277 22.4536V35.8844C30.0178 35.8296 26.6368 35.5796 23.5293 35.1515C23.2779 32.8918 23.1711 30.7993 23.1711 29.1691ZM20.5123 34.6644C18.8363 34.3506 17.2676 33.9798 15.8338 33.5553C10.6244 32.013 8.77598 30.2285 8.77598 29.1691C8.77598 28.1096 10.6244 26.3252 15.8338 24.783C17.2577 24.3615 18.8148 23.9929 20.4777 23.6805C20.3131 25.4539 20.2262 27.2876 20.2262 29.1689C20.2262 30.7405 20.3129 32.6308 20.5123 34.6644ZM36.4729 22.4544C39.9148 22.5112 43.3397 22.7649 46.5138 23.1987C46.7223 25.1337 46.8296 27.1331 46.8296 29.1689C46.8296 31.1899 46.7205 33.1934 46.5082 35.1464C43.3906 35.5775 39.9962 35.8293 36.4729 35.8844V22.4544ZM36.4729 19.5094V3.16969C38.8857 3.89717 41.2322 6.37711 43.0788 10.2222C44.4475 13.0721 45.4681 16.4646 46.0962 20.1741C43.0253 19.788 39.7544 19.5616 36.4729 19.5094ZM33.5278 3.16969V19.5087C30.246 19.5595 26.9813 19.7805 23.9054 20.1678C24.5339 16.4608 25.5537 13.0707 26.9218 10.2223C28.7685 6.37725 31.1153 3.8973 33.5278 3.16969ZM36.4729 38.8294C37.9325 38.8068 39.3887 38.7503 40.8265 38.6608C39.4026 39.2454 37.9544 39.7678 36.4729 40.2302V38.8294ZM60.7809 24.359C59.9964 23.8741 59.0777 23.416 58.0234 22.9856C57.2704 22.6781 56.411 23.0394 56.1036 23.7923C55.7963 24.5453 56.1575 25.4047 56.9105 25.712C60.0916 27.0103 61.2247 28.349 61.2247 29.1691C61.2247 30.2285 59.3763 32.013 54.1669 33.5553C52.7412 33.9773 51.182 34.3462 49.5171 34.6589C49.6867 32.8565 49.7745 31.019 49.7745 29.1691C49.7745 18.3754 46.9481 9.12639 42.645 4.08283C51.8926 6.90621 58.9853 14.7127 60.7809 24.359ZM27.3555 4.08283C24.2434 7.73049 21.9044 13.5782 20.8478 20.6192C16.0523 21.4379 11.922 22.7 9.21361 24.3905C10.9998 14.7295 18.0981 6.90949 27.3555 4.08283ZM9.21361 33.9475C11.9294 35.643 16.0757 36.9075 20.8884 37.7258C21.246 40.1364 21.7641 42.621 22.4826 44.9267C22.5251 45.063 22.5684 45.1985 22.6122 45.3335C22.8145 45.9557 23.3918 46.3512 24.0123 46.3512C24.1631 46.3511 24.3165 46.3278 24.4677 46.2786C25.2413 46.0273 25.6644 45.1965 25.413 44.4232C25.3725 44.2987 25.3326 44.1738 25.2939 44.0496C24.7126 42.1832 24.2706 40.1654 23.9442 38.1752C27.0089 38.5593 30.26 38.7789 33.5279 38.8294V42.1963V49.3968C33.5279 51.6038 33.8218 53.5955 34.3097 55.3841C21.7891 55.0588 11.426 45.9144 9.21361 33.9475ZM60.6881 49.3969C60.6881 55.9696 57.6952 60.3377 55.1845 62.8444C52.2114 65.8127 49.1876 66.9834 48.5804 67.0534C47.9734 66.9833 44.9496 65.8126 41.9763 62.8444C39.4656 60.3375 36.4727 55.9698 36.4727 49.3969V43.3085C40.7169 42.0578 44.6954 40.3592 48.581 38.1391C52.3813 40.3032 56.5301 42.0741 60.6881 43.3074V49.3969Z" fill="#000003"/>
<path d="M26.9308 48.0665C26.5567 47.3442 25.6679 47.062 24.946 47.4361C24.2239 47.81 23.9417 48.6985 24.3156 49.4207L24.3399 49.4669C24.6055 49.9591 25.1094 50.2373 25.6314 50.2373C25.8661 50.2373 26.1047 50.1811 26.3266 50.0626C27.0418 49.681 27.3115 48.7885 26.9332 48.0715L26.9308 48.0665Z" fill="#000003"/>
<path d="M52.987 24.4397L53.0193 24.448C53.1403 24.4787 53.2617 24.4934 53.3811 24.4934C54.0391 24.4934 54.6379 24.0486 54.8068 23.3811C55.0061 22.5928 54.5274 21.7917 53.739 21.5925L53.695 21.5812C52.9051 21.3854 52.1067 21.8676 51.9116 22.6572C51.7164 23.4462 52.1975 24.2443 52.987 24.4397Z" fill="#000003"/>
<path d="M42.4073 51.4736C41.8322 50.8985 40.8999 50.8987 40.3248 51.4737C39.7498 52.0487 39.7498 52.9809 40.3248 53.5561L45.1127 58.3438C45.4002 58.6312 45.777 58.7752 46.154 58.7752C46.5309 58.7752 46.9076 58.6313 47.1952 58.3438L56.8358 48.7032C57.4108 48.1282 57.4108 47.1959 56.8358 46.6207C56.2606 46.0457 55.3286 46.0457 54.7533 46.6207L46.1541 55.2199L42.4073 51.4736Z" fill="#000003"/>
</svg>
