<svg width="70" height="70" viewBox="0 0 70 70" fill="none" xmlns="http://www.w3.org/2000/svg">
<path d="M61.5622 39.4465C65.807 35.9636 68.5277 30.6824 68.5277 24.7957C68.5277 14.373 59.9999 5.8457 49.5773 5.8457H20.4227C9.99994 5.84557 1.47266 14.3729 1.47266 24.7959C1.47266 35.2186 9.99994 43.7459 20.4227 43.7459L44.4976 43.7456C46.8513 40.2298 50.8592 37.9153 55.4081 37.9153C57.6322 37.9154 59.7272 38.469 61.5622 39.4465Z" fill="#85B6FF"/>
<path d="M61.5617 39.4465C59.7266 38.469 57.6318 37.9155 55.4076 37.9155C50.8587 37.9155 46.8509 40.23 44.4972 43.7459C43.1017 45.8305 42.2881 48.3379 42.2881 51.0349C42.2881 58.2807 48.1618 64.1543 55.4076 64.1543C62.6534 64.1543 68.5273 58.2807 68.5273 51.0349C68.5273 46.0131 65.7061 41.6504 61.5617 39.4465ZM51.9313 50.323H58.8841C59.8403 50.323 60.6223 51.1051 60.6223 52.0613V55.5376C60.6223 56.4938 59.8404 57.2759 58.8841 57.2759H51.9313C50.9751 57.2759 50.193 56.4938 50.193 55.5376V52.0613C50.193 51.1049 50.9749 50.323 51.9313 50.323Z" fill="#85BF4F"/>
<path d="M58.8844 50.323H51.9316C50.9754 50.323 50.1934 51.105 50.1934 52.0612V55.5376C50.1934 56.4938 50.9754 57.2758 51.9316 57.2758H58.8844C59.8406 57.2758 60.6227 56.4938 60.6227 55.5376V52.0612C60.6227 51.1049 59.8408 50.323 58.8844 50.323Z" fill="#EDA23F"/>
<path d="M28.8048 26.2685H31.4451L29.578 28.1355C29.0031 28.7105 29.003 29.6427 29.578 30.2179C29.8656 30.5054 30.2424 30.6494 30.6192 30.6494C30.9961 30.6494 31.3728 30.5055 31.6603 30.218L33.5273 28.351V30.9913C33.5273 31.8044 34.1866 32.4638 34.9998 32.4638C35.8128 32.4638 36.4722 31.8044 36.4722 30.9913V28.3507L38.3397 30.2181C38.6272 30.5055 39.004 30.6495 39.3806 30.6495C39.7574 30.6495 40.1344 30.5057 40.422 30.218C40.9969 29.643 40.9969 28.7108 40.4219 28.1356L38.5547 26.2685H41.195C42.0082 26.2685 42.6675 25.6092 42.6675 24.796C42.6675 23.983 42.0082 23.3236 41.195 23.3236H38.0809C38.1217 22.9007 37.9806 22.4633 37.6566 22.1394C37.3326 21.8155 36.8952 21.6742 36.4722 21.7152V18.6009C36.4722 17.7877 35.8128 17.1284 34.9998 17.1284C34.1866 17.1284 33.5273 17.7877 33.5273 18.6009V21.2412L31.6603 19.3742C31.0851 18.7991 30.1529 18.7993 29.5778 19.3743C29.0027 19.9493 29.0029 20.8815 29.5778 21.4567L31.4449 23.3237H28.8045C27.9913 23.3237 27.332 23.9831 27.332 24.7962C27.3323 25.6095 27.9916 26.2685 28.8048 26.2685Z" fill="#000003"/>
<path d="M39.3377 21.9304C39.7127 21.9304 40.088 21.7878 40.3754 21.5026L40.418 21.4602C40.995 20.8871 40.9981 19.9548 40.4251 19.3779C39.8519 18.8009 38.9197 18.7979 38.3426 19.3707L38.3 19.4131C37.723 19.9863 37.72 20.9185 38.2929 21.4956C38.5808 21.7853 38.9591 21.9304 39.3377 21.9304Z" fill="#000003"/>
<path d="M24.082 24.7959C24.082 23.9828 23.4229 23.3234 22.6095 23.3234H19.9688L21.8358 21.4564C22.4109 20.8814 22.4109 19.9491 21.8358 19.3739C21.2609 18.7989 20.3286 18.7989 19.7533 19.3739L17.8864 21.2409V18.6006C17.8864 17.7874 17.227 17.1282 16.414 17.1282C15.6009 17.1282 14.9415 17.7874 14.9415 18.6006V21.2409L13.0743 19.3739C12.4993 18.7989 11.567 18.7989 10.9918 19.3739C10.4168 19.949 10.4168 20.8812 10.9918 21.4564L12.8589 23.3234H10.2186C9.40535 23.3234 8.74609 23.9828 8.74609 24.7959C8.74609 25.6091 9.40535 26.2684 10.2186 26.2684H12.859L10.9921 28.1354C10.4171 28.7104 10.4171 29.6427 10.9921 30.2179C11.2795 30.5053 11.6567 30.6492 12.0332 30.6492C12.41 30.6492 12.787 30.5054 13.0743 30.2179L14.9414 28.3509V30.9912C14.9414 31.8042 15.6008 32.4636 16.4138 32.4636C17.2269 32.4636 17.8863 31.8042 17.8863 30.9912V28.3509L19.7532 30.2179C20.0407 30.5053 20.4178 30.6492 20.7946 30.6492C21.1714 30.6492 21.5482 30.5054 21.8355 30.2179C22.4106 29.6429 22.4106 28.7106 21.8355 28.1354L19.9687 26.2684H22.6092C23.4227 26.2684 24.082 25.6094 24.082 24.7959Z" fill="#000003"/>
<path d="M47.3903 26.2683H50.0306L48.1636 28.1354C47.5885 28.7104 47.5885 29.6426 48.1634 30.2177C48.451 30.5053 48.8278 30.6492 49.2048 30.6492C49.5816 30.6492 49.9584 30.5054 50.2458 30.2179L52.1128 28.3508V30.9912C52.1128 31.8042 52.7721 32.4636 53.5853 32.4636C54.3985 32.4636 55.0578 31.8042 55.0578 30.9912V28.3506L56.9252 30.218C57.2127 30.5054 57.5895 30.6494 57.9664 30.6494C58.3434 30.6494 58.72 30.5055 59.0077 30.2179C59.5827 29.6428 59.5826 28.7107 59.0077 28.1355L57.1407 26.2685H59.781C60.594 26.2685 61.2534 25.6092 61.2534 24.796C61.2534 23.9829 60.594 23.3236 59.781 23.3236H57.1407L59.0078 21.4565C59.5827 20.8815 59.5829 19.9493 59.0078 19.3742C58.4327 18.7991 57.5005 18.7991 56.9253 19.374L55.0579 21.2415V18.6009C55.0579 17.7877 54.3986 17.1284 53.5854 17.1284C52.7722 17.1284 52.113 17.7877 52.113 18.6009V21.2412L50.2459 19.3742C49.6709 18.7991 48.7388 18.7993 48.1634 19.3743C47.5885 19.9493 47.5885 20.8815 48.1636 21.4567L50.0309 23.3237H47.3904C46.5772 23.3237 45.918 23.9831 45.918 24.7962C45.9178 25.6094 46.577 26.2683 47.3903 26.2683Z" fill="#000003"/>
<path d="M63.9841 39.237C67.8282 35.4087 69.9999 30.2483 69.9999 24.7958C69.9999 13.5347 60.8381 4.37329 49.577 4.37329H20.4225C9.16152 4.37315 0 13.5347 0 24.7959C0 36.057 9.16152 45.2184 20.4225 45.2184H42.0268C41.2489 47.0014 40.8162 48.9683 40.8162 51.0347C40.8162 59.0807 47.3621 65.6266 55.4081 65.6266C63.4542 65.6266 70 59.0807 70 51.0347C70 46.1913 67.6272 41.8925 63.9841 39.237ZM20.4225 42.2736C10.7853 42.2736 2.94492 34.4332 2.94492 24.7958C2.94492 15.1585 10.7853 7.31808 20.4225 7.31808H49.577C59.2144 7.31808 67.0549 15.1585 67.0549 24.7959C67.0549 29.7238 64.9794 34.3758 61.3301 37.7C59.5193 36.8928 57.5153 36.443 55.408 36.443H55.4077H24.7505C23.9373 36.443 23.278 37.1024 23.278 37.9155C23.278 38.7287 23.9373 39.3879 24.7505 39.3879H46.6279C45.5387 40.2112 44.568 41.183 43.7466 42.2736H20.4225ZM55.4081 62.6816C48.9859 62.6816 43.7611 57.4571 43.7611 51.0347C43.7611 44.6128 48.9858 39.3878 55.4081 39.3878C61.8301 39.3878 67.0551 44.6125 67.0551 51.0347C67.0551 57.4571 61.8301 62.6816 55.4081 62.6816Z" fill="#6F6FA6"/>
<path d="M58.8845 48.8506H53.0615L52.6953 47.4839C52.5577 46.9704 52.63 46.4313 52.8992 45.9652C53.1682 45.4993 53.599 45.1672 54.1126 45.0295C54.7311 44.8637 55.4001 45.01 55.9025 45.4204C56.5323 45.9352 57.4598 45.8418 57.9742 45.2123C58.489 44.5829 58.3957 43.6551 57.7663 43.1404C56.5323 42.1315 54.881 41.7747 53.35 42.1848C52.0769 42.5257 51.0109 43.3454 50.3485 44.4926C49.6862 45.6397 49.5094 46.9727 49.8501 48.245L50.1564 49.3872C49.2918 49.9632 48.7207 50.9465 48.7207 52.0608V55.5372C48.7207 57.3076 50.1609 58.7479 51.9314 58.7479H58.8842C60.6546 58.7479 62.0949 57.3077 62.0949 55.5372V52.0608C62.0952 50.2908 60.655 48.8506 58.8845 48.8506ZM59.1503 55.5376C59.1503 55.6817 59.0286 55.8034 58.8845 55.8034H51.9317C51.7876 55.8034 51.6659 55.6817 51.6659 55.5376V52.0613C51.6659 51.9182 51.7858 51.7975 51.9284 51.7958C51.9291 51.7958 51.9299 51.7958 51.9307 51.7958C51.9328 51.7958 51.935 51.7955 51.9373 51.7955H58.8844C59.0285 51.7955 59.1502 51.9172 59.1502 52.0613V55.5376H59.1503Z" fill="#000003"/>
<path d="M20.5297 36.4431H20.4227C19.6095 36.4431 18.9502 37.1025 18.9502 37.9156C18.9502 38.7288 19.6095 39.388 20.4227 39.388H20.5297C21.343 39.388 22.0022 38.7288 22.0022 37.9156C22.0022 37.1025 21.3429 36.4431 20.5297 36.4431Z" fill="#000003"/>
</svg>
